<?xml version="1.0" encoding="UTF-8" standalone="no"?>
<svg
   xmlns:dc="http://purl.org/dc/elements/1.1/"
   xmlns:cc="http://creativecommons.org/ns#"
   xmlns:rdf="http://www.w3.org/1999/02/22-rdf-syntax-ns#"
   xmlns:svg="http://www.w3.org/2000/svg"
   xmlns="http://www.w3.org/2000/svg"
   xmlns:sodipodi="http://sodipodi.sourceforge.net/DTD/sodipodi-0.dtd"
   xmlns:inkscape="http://www.inkscape.org/namespaces/inkscape"
   version="1.1"
   id="svg2"
   xml:space="preserve"
   width="401.25333"
   height="104.29333"
   viewBox="0 0 401.25333 104.29333"
   sodipodi:docname="University-Wordmark-Full-Color-RGB.eps"><metadata
     id="metadata8"><rdf:RDF><cc:Work
         rdf:about=""><dc:format>image/svg+xml</dc:format><dc:type
           rdf:resource="http://purl.org/dc/dcmitype/StillImage" /></cc:Work></rdf:RDF></metadata><defs
     id="defs6" /><sodipodi:namedview
     pagecolor="#ffffff"
     bordercolor="#666666"
     borderopacity="1"
     objecttolerance="10"
     gridtolerance="10"
     guidetolerance="10"
     inkscape:pageopacity="0"
     inkscape:pageshadow="2"
     inkscape:window-width="640"
     inkscape:window-height="480"
     id="namedview4" /><g
     id="g10"
     inkscape:groupmode="layer"
     inkscape:label="ink_ext_XXXXXX"
     transform="matrix(1.3333333,0,0,-1.3333333,0,104.29333)"><g
       id="g12"
       transform="scale(0.1)"><path
         d="m 421.191,180.508 h 90.243 V 30.0977 H 30.0781 V 180.508 H 120.34 c 16.598,0 30.078,13.476 30.078,30.097 v 361.016 c 0,16.613 -13.48,30.078 -30.078,30.078 H 30.0781 v 150.41 H 511.434 v -150.41 h -90.243 c -16.617,0 -30.093,-13.465 -30.093,-30.078 V 210.605 c 0,-16.621 13.476,-30.097 30.093,-30.097 M 541.527,571.621 V 782.207 H 0 V 571.621 H 120.34 V 210.605 H 0 V 0 H 541.527 V 210.605 H 421.191 v 361.016 h 120.336"
         style="fill:#192947;fill-opacity:1;fill-rule:nonzero;stroke:none"
         id="path14" /><path
         d="m 421.191,601.699 h 90.243 V 752.121 H 30.0781 V 601.699 H 120.34 c 16.598,0 30.078,-13.457 30.078,-30.086 V 210.586 c 0,-16.594 -13.48,-30.078 -30.078,-30.078 H 30.0781 V 30.0977 H 511.434 V 180.508 h -90.243 c -16.617,0 -30.093,13.484 -30.093,30.078 v 361.027 c 0,16.629 13.476,30.086 30.093,30.086"
         style="fill:#f0412f;fill-opacity:1;fill-rule:nonzero;stroke:none"
         id="path16" /><path
         d="m 966.234,206.199 v 324.336 h 71.356 V 206.199 h -71.356"
         style="fill:#192947;fill-opacity:1;fill-rule:nonzero;stroke:none"
         id="path18" /><path
         d="m 1122.36,206.199 v 324.336 h 71.35 V 271.074 h 161.7 v -64.875 h -233.05"
         style="fill:#192947;fill-opacity:1;fill-rule:nonzero;stroke:none"
         id="path20" /><path
         d="m 1407.68,206.199 v 324.336 h 71.35 V 271.074 h 161.71 v -64.875 h -233.06"
         style="fill:#192947;fill-opacity:1;fill-rule:nonzero;stroke:none"
         id="path22" /><path
         d="m 1694.57,206.199 v 324.336 h 71.35 V 206.199 h -71.35"
         style="fill:#192947;fill-opacity:1;fill-rule:nonzero;stroke:none"
         id="path24" /><path
         d="M 2078.18,206.199 1921.11,412.383 V 206.199 h -70.42 v 324.336 h 65.8 l 151.96,-199.683 v 199.683 h 70.43 V 206.199 h -60.7"
         style="fill:#192947;fill-opacity:1;fill-rule:nonzero;stroke:none"
         id="path26" /><path
         d="m 2476.49,368.379 c 0,55.586 -40.76,101.934 -98.22,101.934 -57.46,0 -97.31,-45.411 -97.31,-101.016 v -0.918 c 0,-55.606 40.78,-101.941 98.23,-101.941 57.46,0 97.3,45.41 97.3,101.003 z m -98.22,-167.734 c -100.08,0 -171.9,74.597 -171.9,166.796 v 0.938 c 0,92.195 72.74,167.715 172.82,167.715 100.09,0 171.9,-74.59 171.9,-166.797 v -0.918 c 0,-92.219 -72.74,-167.734 -172.82,-167.734"
         style="fill:#192947;fill-opacity:1;fill-rule:nonzero;stroke:none"
         id="path28" /><path
         d="m 2620.15,206.199 v 324.336 h 71.37 V 206.199 h -71.37"
         style="fill:#192947;fill-opacity:1;fill-rule:nonzero;stroke:none"
         id="path30" /><path
         d="m 2890.35,201.574 c -49.12,0 -98.7,17.137 -137.61,51.895 l 42.16,50.496 c 29.19,-24.082 59.77,-39.387 96.83,-39.387 29.19,0 46.8,11.582 46.8,30.59 v 0.926 c 0,18.078 -11.11,27.324 -65.32,41.23 -65.34,16.68 -107.5,34.754 -107.5,99.16 v 0.926 c 0,58.84 47.26,97.758 113.51,97.758 47.27,0 87.58,-14.824 120.48,-41.23 l -37.08,-53.75 c -28.72,19.921 -56.98,31.972 -84.33,31.972 -27.33,0 -41.69,-12.512 -41.69,-28.262 v -0.929 c 0,-21.317 13.9,-28.262 69.97,-42.625 65.79,-17.149 102.86,-40.774 102.86,-97.309 v -0.926 c 0,-64.394 -49.12,-100.535 -119.08,-100.535"
         style="fill:#192947;fill-opacity:1;fill-rule:nonzero;stroke:none"
         id="path32" /><path
         d="m 1010.11,622.754 c -34.012,0 -54.805,18.984 -54.805,56.25 v 72.344 h 27.863 v -71.621 c 0,-20.625 10.293,-31.297 27.312,-31.297 16.99,0 27.3,10.32 27.3,30.39 v 72.528 h 27.85 v -71.446 c 0,-38.339 -21.53,-57.148 -55.52,-57.148"
         style="fill:#192947;fill-opacity:1;fill-rule:nonzero;stroke:none"
         id="path34" /><path
         d="m 1234.27,624.746 -61.31,80.481 v -80.481 h -27.49 v 126.602 h 25.69 l 59.31,-77.95 v 77.95 h 27.5 V 624.746 h -23.7"
         style="fill:#192947;fill-opacity:1;fill-rule:nonzero;stroke:none"
         id="path36" /><path
         d="m 1339.84,624.746 v 126.602 h 27.86 V 624.746 h -27.86"
         style="fill:#192947;fill-opacity:1;fill-rule:nonzero;stroke:none"
         id="path38" /><path
         d="m 1512.13,623.84 h -24.6 l -51.17,127.508 h 30.74 l 33.11,-89.168 33.07,89.168 h 30.04 L 1512.13,623.84"
         style="fill:#192947;fill-opacity:1;fill-rule:nonzero;stroke:none"
         id="path40" /><path
         d="m 1631.73,624.746 v 126.602 h 95.5 v -24.785 h -67.82 v -25.684 h 59.68 v -24.774 h -59.68 v -26.593 h 68.72 v -24.766 h -96.4"
         style="fill:#192947;fill-opacity:1;fill-rule:nonzero;stroke:none"
         id="path42" /><path
         d="m 1881.93,708.125 c 0,11.926 -8.33,18.078 -21.9,18.078 h -27.65 v -36.348 h 28.2 c 13.56,0 21.35,7.235 21.35,17.899 z m -0.55,-83.379 -27.13,40.508 h -21.87 v -40.508 h -27.86 v 126.602 h 57.87 c 29.85,0 47.74,-15.743 47.74,-41.785 v -0.364 c 0,-20.429 -11.03,-33.269 -27.13,-39.25 l 30.93,-45.203 h -32.55"
         style="fill:#192947;fill-opacity:1;fill-rule:nonzero;stroke:none"
         id="path44" /><path
         d="m 2029.68,622.93 c -19.17,0 -38.52,6.699 -53.71,20.265 l 16.45,19.707 c 11.39,-9.406 23.33,-15.371 37.79,-15.371 11.4,0 18.27,4.52 18.27,11.934 v 0.371 c 0,7.039 -4.35,10.664 -25.5,16.094 -25.51,6.504 -41.95,13.562 -41.95,38.699 v 0.363 c 0,22.969 18.44,38.164 44.31,38.164 18.43,0 34.18,-5.793 47.03,-16.093 l -14.49,-20.989 c -11.21,7.774 -22.23,12.481 -32.92,12.481 -10.65,0 -16.26,-4.883 -16.26,-11.035 v -0.36 c 0,-8.32 5.42,-11.027 27.32,-16.64 25.66,-6.692 40.15,-15.911 40.15,-37.981 v -0.359 c 0,-25.137 -19.17,-39.25 -46.49,-39.25"
         style="fill:#192947;fill-opacity:1;fill-rule:nonzero;stroke:none"
         id="path46" /><path
         d="m 2151.31,624.746 v 126.602 h 27.85 V 624.746 h -27.85"
         style="fill:#192947;fill-opacity:1;fill-rule:nonzero;stroke:none"
         id="path48" /><path
         d="m 2315.15,725.656 v -100.91 h -27.84 v 100.91 h -38.53 v 25.692 h 104.89 v -25.692 h -38.52"
         style="fill:#192947;fill-opacity:1;fill-rule:nonzero;stroke:none"
         id="path50" /><path
         d="m 2492.66,675.203 v -50.457 h -27.84 v 49.914 l -48.65,76.688 h 32.54 l 30.2,-50.828 30.75,50.828 h 31.65 l -48.65,-76.145"
         style="fill:#192947;fill-opacity:1;fill-rule:nonzero;stroke:none"
         id="path52" /><path
         d="m 2807.01,688.039 c 0,21.707 -15.9,39.793 -38.34,39.793 -22.42,0 -37.97,-17.734 -37.97,-39.422 v -0.371 c 0,-21.699 15.91,-39.785 38.34,-39.785 22.42,0 37.97,17.723 37.97,39.434 z m -38.34,-65.469 c -39.07,0 -67.09,29.121 -67.09,65.118 v 0.351 c 0,35.996 28.38,65.477 67.46,65.477 39.07,0 67.09,-29.121 67.09,-65.106 v -0.371 c 0,-35.988 -28.39,-65.469 -67.46,-65.469"
         style="fill:#192947;fill-opacity:1;fill-rule:nonzero;stroke:none"
         id="path54" /><path
         d="m 2938.63,726.027 v -26.953 h 60.39 V 673.75 h -60.39 v -49.004 h -27.86 v 126.602 h 96.39 v -25.321 h -68.53"
         style="fill:#192947;fill-opacity:1;fill-rule:nonzero;stroke:none"
         id="path56" /><path
         d="m 966.02,65.168 v 46.699 h 17.976 V 65.6367 c 0,-13.3125 6.652,-20.1953 17.624,-20.1953 10.98,0 17.63,6.6484 17.63,19.6094 v 46.8162 h 17.98 V 65.7539 c 0,-24.7461 -13.9,-36.8945 -35.84,-36.8945 -21.945,0 -35.37,12.2539 -35.37,36.3086"
         style="fill:#192947;fill-opacity:1;fill-rule:nonzero;stroke:none"
         id="path58" /><path
         d="m 1140.3,72.168 c 8.75,0 13.77,4.6679 13.77,11.5625 v 0.2343 c 0,7.7071 -5.38,11.6719 -14.13,11.6719 h -17.86 V 72.168 Z m -36.2,39.699 h 37.36 c 10.39,0 18.45,-2.922 23.82,-8.293 4.55,-4.5506 7,-10.9763 7,-18.6795 v -0.2343 c 0,-13.1836 -7.12,-21.4766 -17.51,-25.3321 l 19.96,-29.1797 h -21.01 l -17.52,26.1407 h -14.12 V 30.1484 h -17.98 v 81.7186"
         style="fill:#192947;fill-opacity:1;fill-rule:nonzero;stroke:none"
         id="path60" /><path
         d="m 1275.35,63.8867 h -20.79 V 45.9102 h 21.37 c 7.94,0 12.73,2.7929 12.73,8.8671 v 0.2344 c 0,5.4883 -4.1,8.875 -13.31,8.875 z m 8.75,23.8086 c 0,5.3711 -4.2,8.4102 -11.79,8.4102 h -17.75 V 78.8281 h 16.59 c 7.94,0 12.95,2.5703 12.95,8.6328 z m -47.05,24.1717 h 37.94 c 9.35,0 16.7,-2.57 21.37,-7.25 3.73,-3.726 5.6,-8.2772 5.6,-13.8826 V 90.5 c 0,-9.2187 -4.91,-14.3555 -10.74,-17.6289 9.46,-3.6211 15.3,-9.1016 15.3,-20.0781 v -0.2344 c 0,-14.9414 -12.15,-22.4102 -30.59,-22.4102 h -38.88 v 81.7186"
         style="fill:#192947;fill-opacity:1;fill-rule:nonzero;stroke:none"
         id="path62" /><path
         d="m 1416.82,64.3477 -10.86,26.5039 -10.86,-26.5039 z m -18.92,48.0933 h 16.59 l 35.02,-82.2926 h -18.8 l -7.47,18.3282 h -34.56 l -7.47,-18.3282 h -18.33 l 35.02,82.2926"
         style="fill:#192947;fill-opacity:1;fill-rule:nonzero;stroke:none"
         id="path64" /><path
         d="m 1510.66,111.867 h 16.58 l 38.29,-50.324 v 50.324 h 17.74 V 30.1484 h -15.29 L 1528.4,82.0898 V 30.1484 h -17.74 v 81.7186"
         style="fill:#192947;fill-opacity:1;fill-rule:nonzero;stroke:none"
         id="path66" /><path
         d="m 1698.36,64.3477 -10.86,26.5039 -10.86,-26.5039 z m -18.91,48.0933 h 16.58 l 35.02,-82.2926 h -18.8 l -7.47,18.3282 h -34.55 l -7.47,-18.3282 h -18.33 l 35.02,82.2926"
         style="fill:#192947;fill-opacity:1;fill-rule:nonzero;stroke:none"
         id="path68" /><path
         d="m 1785.9,74.8555 h 35.95 v -17.043 h -35.95 v 17.043"
         style="fill:#192947;fill-opacity:1;fill-rule:nonzero;stroke:none"
         id="path70" /><path
         d="m 1877.76,70.7734 v 0.2344 c 0,23.2305 17.51,42.2542 42.6,42.2542 15.41,0 24.64,-5.137 32.23,-12.606 l -11.44,-13.1951 c -6.3,5.7227 -12.73,9.2305 -20.89,9.2305 -13.78,0 -23.7,-11.4492 -23.7,-25.4492 v -0.2344 c 0,-14.0156 9.68,-25.6836 23.7,-25.6836 9.33,0 15.06,3.7305 21.47,9.5703 l 11.45,-11.5547 c -8.41,-8.9921 -17.76,-14.5976 -33.51,-14.5976 -24.05,0 -41.91,18.5625 -41.91,42.0312"
         style="fill:#192947;fill-opacity:1;fill-rule:nonzero;stroke:none"
         id="path72" /><path
         d="m 2016.08,111.867 h 17.98 V 79.5234 h 33.15 v 32.3436 h 17.98 V 30.1484 h -17.98 v 32.8008 h -33.15 V 30.1484 h -17.98 v 81.7186"
         style="fill:#192947;fill-opacity:1;fill-rule:nonzero;stroke:none"
         id="path74" /><path
         d="m 2200.28,64.3477 -10.86,26.5039 -10.85,-26.5039 z m -18.92,48.0933 h 16.58 l 35.02,-82.2926 h -18.79 l -7.47,18.3282 h -34.56 l -7.47,-18.3282 h -18.33 l 35.02,82.2926"
         style="fill:#192947;fill-opacity:1;fill-rule:nonzero;stroke:none"
         id="path76" /><path
         d="m 2294.12,111.867 h 19.38 l 21.48,-34.5623 21.48,34.5623 h 19.37 V 30.1484 h -17.86 v 53.3477 l -22.99,-34.9102 h -0.46 l -22.77,34.5586 V 30.1484 h -17.63 v 81.7186"
         style="fill:#192947;fill-opacity:1;fill-rule:nonzero;stroke:none"
         id="path78" /><path
         d="m 2476.21,70.6563 c 9,0 14.25,5.371 14.25,12.371 v 0.2344 c 0,8.0586 -5.6,12.375 -14.6,12.375 h -13.88 V 70.6563 Z M 2444,111.867 h 33.39 c 19.49,0 31.28,-11.562 31.28,-28.2537 v -0.2344 c 0,-18.9141 -14.71,-28.7187 -33.04,-28.7187 h -13.65 V 30.1484 H 2444 v 81.7186"
         style="fill:#192947;fill-opacity:1;fill-rule:nonzero;stroke:none"
         id="path80" /><path
         d="m 2609.28,64.3477 -10.85,26.5039 -10.86,-26.5039 z m -18.91,48.0933 h 16.58 l 35.02,-82.2926 h -18.79 l -7.47,18.3282 h -34.56 l -7.47,-18.3282 h -18.33 l 35.02,82.2926"
         style="fill:#192947;fill-opacity:1;fill-rule:nonzero;stroke:none"
         id="path82" /><path
         d="m 2703.95,111.867 h 17.98 V 30.1484 h -17.98 v 81.7186"
         style="fill:#192947;fill-opacity:1;fill-rule:nonzero;stroke:none"
         id="path84" /><path
         d="m 2787.29,70.7734 v 0.2344 c 0,23.2305 18.09,42.2542 42.84,42.2542 14.71,0 23.58,-3.965 32.1,-11.199 l -11.32,-13.6646 c -6.31,5.2539 -11.91,8.293 -21.37,8.293 -13.07,0 -23.46,-11.5625 -23.46,-25.4492 v -0.2344 c 0,-14.9414 10.27,-25.918 24.75,-25.918 6.54,0 12.38,1.629 16.93,4.9024 v 11.668 h -18.1 v 15.5273 h 35.49 V 41.6992 c -8.4,-7.1211 -19.96,-12.957 -34.9,-12.957 -25.45,0 -42.96,17.8594 -42.96,42.0312"
         style="fill:#192947;fill-opacity:1;fill-rule:nonzero;stroke:none"
         id="path86" /><path
         d="m 2930.98,111.867 h 16.57 l 38.29,-50.324 v 50.324 h 17.75 V 30.1484 h -15.3 l -39.57,51.9414 V 30.1484 h -17.74 v 81.7186"
         style="fill:#192947;fill-opacity:1;fill-rule:nonzero;stroke:none"
         id="path88" /></g></g></svg>
