<?xml version="1.0" standalone="no"?>
<!DOCTYPE svg PUBLIC "-//W3C//DTD SVG 20010904//EN"
 "http://www.w3.org/TR/2001/REC-SVG-20010904/DTD/svg10.dtd">
<svg version="1.0" xmlns="http://www.w3.org/2000/svg"
 width="1156.000000pt" height="1156.000000pt" viewBox="0 0 1156.000000 1156.000000"
 preserveAspectRatio="xMidYMid meet">
<metadata>
Created by potrace 1.14, written by Peter Selinger 2001-2017
</metadata>
<g transform="translate(0.000000,1156.000000) scale(0.100000,-0.100000)"
fill="#000000" stroke="none">
<path d="M1949 11492 l-126 -3 1 -1552 1 -1552 883 -2 c486 -1 886 -4 889 -6
2 -3 4 -34 3 -69 -1 -34 -1 -70 -1 -78 0 -8 0 -46 0 -85 -1 -38 -1 -77 0 -85
0 -8 0 -44 0 -80 0 -36 0 -74 1 -85 1 -11 1 -27 1 -35 0 -8 0 -62 0 -120 0
-58 1 -133 2 -168 1 -34 -2 -62 -6 -62 -5 0 -6 -4 -3 -9 4 -6 7 -160 5 -231
-1 -28 0 -205 2 -245 1 -22 1 -47 1 -55 -2 -33 -1 -299 1 -358 1 -34 -2 -62
-6 -62 -5 0 -6 -4 -3 -9 4 -6 7 -160 5 -231 -1 -28 0 -205 2 -245 1 -22 1 -47
1 -55 -2 -33 -1 -299 1 -358 1 -34 -2 -62 -6 -62 -5 0 -5 -4 -2 -10 3 -5 5
-57 5 -115 -1 -58 -1 -111 -1 -117 0 -15 0 -284 0 -313 0 -11 0 -51 0 -90 -1
-38 -1 -77 0 -85 0 -8 0 -44 0 -80 0 -36 0 -74 1 -85 2 -26 2 -27 1 -120 0
-44 0 -87 0 -95 0 -8 0 -37 0 -65 0 -27 0 -57 0 -65 0 -8 0 -51 0 -95 0 -44 0
-87 0 -95 1 -8 1 -37 0 -65 0 -27 -1 -57 0 -65 0 -8 0 -64 0 -125 0 -60 0
-119 0 -130 0 -11 0 -83 0 -160 0 -77 1 -168 2 -203 1 -34 -2 -62 -6 -62 -5 0
-5 -4 -2 -10 3 -5 5 -58 5 -117 -1 -59 -1 -122 0 -140 l1 -32 -803 0 c-442 0
-842 0 -889 -1 l-86 0 0 -1525 0 -1525 3979 0 3978 0 0 1525 0 1525 -47 0
c-27 0 -417 1 -868 1 l-820 1 1 2661 c1 1464 2 2664 3 2667 0 3 390 4 866 3
l865 -2 0 1555 c0 855 -3 1554 -7 1554 -45 2 -7731 4 -7824 2z"/>
</g>
</svg>
